<svg version="1.1" viewBox="0.0 0.0 960.0 720.0" fill="none" stroke="none" stroke-linecap="square" stroke-miterlimit="10" xmlns:xlink="http://www.w3.org/1999/xlink" xmlns="http://www.w3.org/2000/svg"><clipPath id="p.0"><path d="m0 0l960.0 0l0 720.0l-960.0 0l0 -720.0z" clip-rule="nonzero"/></clipPath><g clip-path="url(#p.0)"><path fill="#000000" fill-opacity="0.0" d="m0 0l960.0 0l0 720.0l-960.0 0z" fill-rule="evenodd"/><path fill="#434343" d="m125.22911 243.7345l0 0c0 -24.737747 20.05391 -44.791656 44.791656 -44.791656l0 0c11.879486 0 23.272415 4.719101 31.67247 13.119171c8.40007 8.400055 13.119171 19.793 13.119171 31.672485l0 0c0 24.737732 -20.053894 44.791656 -44.79164 44.791656l0 0c-24.737747 0 -44.791656 -20.053925 -44.791656 -44.791656z" fill-rule="evenodd"/><path fill="#434343" d="m142.33508 294.58954l0 0c0 -24.737762 20.05391 -44.791656 44.791656 -44.791656l0 0c11.879471 0 23.272415 4.719101 31.67247 13.119171c8.40007 8.400055 13.119171 19.793 13.119171 31.672485l0 0c0 24.737732 -20.053894 44.791656 -44.79164 44.791656l0 0c-24.737747 0 -44.791656 -20.053925 -44.791656 -44.791656z" fill-rule="evenodd"/><path fill="#434343" d="m176.31693 257.17572l0 0c0 -24.737732 20.05391 -44.79164 44.791656 -44.79164l0 0c11.879486 0 23.272415 4.719116 31.67247 13.119171c8.40007 8.40007 13.119186 19.793 13.119186 31.67247l0 0c0 24.737762 -20.05391 44.791656 -44.791656 44.791656l0 0c-24.737747 0 -44.791656 -20.053894 -44.791656 -44.791656z" fill-rule="evenodd"/><path fill="#434343" d="m198.61418 307.3461l0 0c0 -24.737762 20.053894 -44.791656 44.79164 -44.791656l0 0c11.879486 0 23.27243 4.7190857 31.672485 13.119171c8.400055 8.400055 13.119171 19.793 13.119171 31.672485l0 0c0 24.737732 -20.053894 44.791626 -44.791656 44.791626l0 0c-24.737747 0 -44.79164 -20.053894 -44.79164 -44.791626z" fill-rule="evenodd"/><path fill="#434343" d="m214.79974 235.18149l0 0c0 -24.737747 20.05391 -44.791656 44.791656 -44.791656l0 0c11.879486 0 23.27243 4.719101 31.672485 13.119171c8.400055 8.40007 13.119171 19.793 13.119171 31.672485l0 0c0 24.737732 -20.053894 44.791656 -44.791656 44.791656l0 0c-24.737747 0 -44.791656 -20.053925 -44.791656 -44.791656z" fill-rule="evenodd"/><path fill="#434343" d="m176.31693 226.71547l0 0c0 -24.737747 20.05391 -44.791656 44.791656 -44.791656l0 0c11.879486 0 23.272415 4.719101 31.67247 13.119171c8.40007 8.40007 13.119186 19.793 13.119186 31.672485l0 0c0 24.737747 -20.05391 44.79164 -44.791656 44.79164l0 0c-24.737747 0 -44.791656 -20.053894 -44.791656 -44.79164z" fill-rule="evenodd"/><path fill="#434343" d="m259.01825 235.94756l0 0c0 -24.737747 20.053894 -44.791656 44.791656 -44.791656l0 0c11.879456 0 23.2724 4.719101 31.672455 13.119171c8.400085 8.400055 13.119171 19.793 13.119171 31.672485l0 0c0 24.737747 -20.053894 44.79164 -44.791626 44.79164l0 0c-24.737762 0 -44.791656 -20.053894 -44.791656 -44.79164z" fill-rule="evenodd"/><path fill="#434343" d="m265.88757 294.58954l0 0c0 -24.737762 20.053894 -44.791656 44.791656 -44.791656l0 0c11.879486 0 23.2724 4.719101 31.672485 13.119171c8.400055 8.400055 13.119171 19.793 13.119171 31.672485l0 0c0 24.737732 -20.053925 44.791656 -44.791656 44.791656l0 0c-24.737762 0 -44.791656 -20.053925 -44.791656 -44.791656z" fill-rule="evenodd"/><path fill="#795548" d="m183.23656 231.98415l120.340256 0l0 64.17421l-120.340256 0z" fill-rule="evenodd"/><path stroke="#ffffff" stroke-width="3.0" stroke-linejoin="round" stroke-linecap="butt" d="m183.23656 231.98415l120.340256 0l0 64.17421l-120.340256 0z" fill-rule="evenodd"/><path fill="#000000" d="m205.63245 273.69196l9.7717285 118.106384l14.993835 -2.184967l-16.734802 21.046356l-19.777176 -15.725647l14.99382 -2.184967l-9.7717285 -118.106415z" fill-rule="evenodd"/><path stroke="#ffffff" stroke-width="2.0" stroke-linejoin="round" stroke-linecap="butt" d="m205.63245 273.69196l9.7717285 118.106384l14.993835 -2.184967l-16.734802 21.046356l-19.777176 -15.725647l14.99382 -2.184967l-9.7717285 -118.106415z" fill-rule="evenodd"/><path fill="#000000" d="m272.32892 273.69196l-9.7717285 118.106384l-14.993851 -2.184967l16.734818 21.046356l19.77716 -15.725647l-14.993805 -2.184967l9.7717285 -118.106415z" fill-rule="evenodd"/><path stroke="#ffffff" stroke-width="2.0" stroke-linejoin="round" stroke-linecap="butt" d="m272.32892 273.69196l-9.7717285 118.106384l-14.993851 -2.184967l16.734818 21.046356l19.77716 -15.725647l-14.993805 -2.184967l9.7717285 -118.106415z" fill-rule="evenodd"/><path fill="#000000" fill-opacity="0.0" d="m492.33755 246.64545c0 37.062775 30.715546 55.594147 61.43106 74.12552c30.715515 18.531372 61.43109 37.062744 61.43109 74.12552" fill-rule="evenodd"/><path stroke="#ffffff" stroke-width="12.0" stroke-linejoin="round" stroke-linecap="butt" d="m492.33755 246.64545c0 37.062775 30.715546 55.594147 61.43106 74.12552c30.715515 18.531372 61.43109 37.062744 61.43109 74.12552" fill-rule="evenodd"/><path fill="#434343" d="m544.00195 241.88988l0 0c0 -24.000122 19.455994 -43.45607 43.456116 -43.45607l0 0c11.525269 0 22.57843 4.5783997 30.728027 12.727997c8.149597 8.149582 12.728027 19.202805 12.728027 30.728073l0 0c0 24.000107 -19.455933 43.45607 -43.456055 43.45607l0 0c-24.000122 0 -43.456116 -19.455963 -43.456116 -43.45607z" fill-rule="evenodd"/><path fill="#434343" d="m560.5979 291.22852l0 0c0 -24.000122 19.455933 -43.456055 43.456055 -43.456055l0 0c11.525269 0 22.578491 4.5783997 30.728088 12.727997c8.149597 8.149597 12.727966 19.20282 12.727966 30.728058l0 0c0 24.000122 -19.455933 43.456085 -43.456055 43.456085l0 0c-24.000122 0 -43.456055 -19.455963 -43.456055 -43.456085z" fill-rule="evenodd"/><path fill="#434343" d="m593.56647 254.93033l0 0c0 -24.000122 19.455933 -43.456055 43.456055 -43.456055l0 0c11.525269 0 22.578491 4.5783844 30.728088 12.727982c8.149597 8.149597 12.727966 19.202805 12.727966 30.728073l0 0c0 24.000122 -19.455933 43.456055 -43.456055 43.456055l0 0c-24.000122 0 -43.456055 -19.455933 -43.456055 -43.456055z" fill-rule="evenodd"/><path fill="#434343" d="m615.19885 303.6047l0 0c0 -24.000122 19.455933 -43.456055 43.456055 -43.456055l0 0c11.525269 0 22.578491 4.5783997 30.728088 12.727997c8.149597 8.149567 12.728027 19.20279 12.728027 30.728058l0 0c0 24.000122 -19.455994 43.456055 -43.456116 43.456055l0 0c-24.000122 0 -43.456055 -19.455933 -43.456055 -43.456055z" fill-rule="evenodd"/><path fill="#434343" d="m630.9018 233.5919l0 0c0 -24.000122 19.455994 -43.45607 43.456116 -43.45607l0 0c11.5252075 0 22.57843 4.5783997 30.728027 12.727982c8.149597 8.149597 12.728027 19.20282 12.728027 30.728088l0 0c0 24.000107 -19.455933 43.45607 -43.456055 43.45607l0 0c-24.000122 0 -43.456116 -19.455963 -43.456116 -43.45607z" fill-rule="evenodd"/><path fill="#434343" d="m593.56647 225.37831l0 0c0 -24.000107 19.455933 -43.456055 43.456055 -43.456055l0 0c11.525269 0 22.578491 4.5783997 30.728088 12.727982c8.149597 8.149597 12.727966 19.20282 12.727966 30.728073l0 0c0 24.000122 -19.455933 43.45607 -43.456055 43.45607l0 0c-24.000122 0 -43.456055 -19.455948 -43.456055 -43.45607z" fill-rule="evenodd"/><path fill="#434343" d="m673.8018 234.33513l0 0c0 -24.000122 19.455933 -43.45607 43.456055 -43.45607l0 0c11.525269 0 22.578491 4.5783997 30.728088 12.727982c8.149597 8.149597 12.727966 19.20282 12.727966 30.728088l0 0c0 24.000107 -19.455933 43.45607 -43.456055 43.45607l0 0c-24.000122 0 -43.456055 -19.455963 -43.456055 -43.45607z" fill-rule="evenodd"/><path fill="#434343" d="m680.4663 291.22852l0 0c0 -24.000122 19.455933 -43.456055 43.456055 -43.456055l0 0c11.525269 0 22.578491 4.5783997 30.728088 12.727997c8.149597 8.149597 12.727966 19.20282 12.727966 30.728058l0 0c0 24.000122 -19.455933 43.456085 -43.456055 43.456085l0 0c-24.000122 0 -43.456055 -19.455963 -43.456055 -43.456085z" fill-rule="evenodd"/><path fill="#795548" d="m600.2798 230.4899l116.75195 0l0 62.26068l-116.75195 0z" fill-rule="evenodd"/><path stroke="#ffffff" stroke-width="3.0" stroke-linejoin="round" stroke-linecap="butt" d="m600.2798 230.4899l116.75195 0l0 62.26068l-116.75195 0z" fill-rule="evenodd"/><path fill="#000000" d="m662.1441 270.48053l0.067871094 108.96939l-14.63324 0l17.828064 17.816986l17.805908 -17.816986l-14.633301 0l-0.067871094 -108.96939z" fill-rule="evenodd"/><path stroke="#ffffff" stroke-width="2.0" stroke-linejoin="round" stroke-linecap="butt" d="m662.1441 270.48053l0.067871094 108.96939l-14.63324 0l17.828064 17.816986l17.805908 -17.816986l-14.633301 0l-0.067871094 -108.96939z" fill-rule="evenodd"/><path fill="#000000" d="m610.75397 394.38513l0 0l-14.63324 0l17.816956 16.671326l17.817017 -16.671326l-14.633301 0l0 0z" fill-rule="evenodd"/><path stroke="#ffffff" stroke-width="1.0" stroke-linejoin="round" stroke-linecap="butt" d="m610.75397 394.38513l0 0l-14.63324 0l17.816956 16.671326l17.817017 -16.671326l-14.633301 0l0 0z" fill-rule="evenodd"/><path fill="#000000" fill-opacity="0.0" d="m492.33755 246.64545c0 37.062775 30.715546 55.594147 61.43106 74.12552c30.715515 18.531372 61.43109 37.062744 61.43109 74.12552" fill-rule="evenodd"/><path stroke="#000000" stroke-width="8.0" stroke-linejoin="round" stroke-linecap="butt" d="m492.33755 246.64545c0 37.062775 30.715546 55.594147 61.43106 74.12552c30.715515 18.531372 61.43109 37.062744 61.43109 74.12552" fill-rule="evenodd"/><path fill="#000000" fill-opacity="0.0" d="m838.39703 248.91263c0 37.062744 -30.715515 55.594147 -61.43103 74.12552c-30.715576 18.531372 -61.43109 37.062744 -61.43109 74.12549" fill-rule="evenodd"/><path stroke="#ffffff" stroke-width="12.0" stroke-linejoin="round" stroke-linecap="butt" d="m838.39703 248.91263c0 37.062744 -30.715515 55.594147 -61.43103 74.12552c-30.715576 18.531372 -61.43109 37.062744 -61.43109 74.12549" fill-rule="evenodd"/><path fill="#000000" d="m719.9806 396.6523l0 0l14.633301 0l-17.817017 16.671326l-17.816956 -16.671326l14.63324 0l0 0z" fill-rule="evenodd"/><path stroke="#ffffff" stroke-width="1.0" stroke-linejoin="round" stroke-linecap="butt" d="m719.9806 396.6523l0 0l14.633301 0l-17.817017 16.671326l-17.816956 -16.671326l14.63324 0l0 0z" fill-rule="evenodd"/><path fill="#000000" fill-opacity="0.0" d="m838.39703 248.91263c0 37.062744 -30.715515 55.594147 -61.43103 74.12552c-30.715576 18.531372 -61.43109 37.062744 -61.43109 74.12549" fill-rule="evenodd"/><path stroke="#000000" stroke-width="8.0" stroke-linejoin="round" stroke-linecap="butt" d="m838.39703 248.91263c0 37.062744 -30.715515 55.594147 -61.43103 74.12552c-30.715576 18.531372 -61.43109 37.062744 -61.43109 74.12549" fill-rule="evenodd"/></g></svg>