<svg width="129" height="146" viewBox="0 0 129 146" fill="none" xmlns="http://www.w3.org/2000/svg">
<path d="M95.551 52.591C104.958 59.312 116.482 63.2665 128.928 63.2665V39.328C126.573 39.3285 124.223 39.083 121.919 38.595V57.438C109.473 57.438 97.951 53.4835 88.5415 46.763V95.6145C88.5415 120.053 68.7205 139.862 44.2715 139.862C35.149 139.862 26.67 137.106 19.6265 132.378C27.6655 140.594 38.8765 145.69 51.2795 145.69C75.73 145.69 95.552 125.88 95.552 101.441V52.591H95.551ZM104.198 28.44C99.3905 23.1905 96.234 16.4065 95.551 8.9065V5.8275H88.9085C90.5805 15.36 96.2835 23.504 104.198 28.44ZM35.0905 113.625C32.4045 110.105 30.953 105.799 30.9595 101.371C30.9595 90.1945 40.0255 81.132 51.2105 81.132C53.295 81.1315 55.367 81.4505 57.3535 82.0805V57.607C55.032 57.289 52.689 57.154 50.347 57.2035V76.2525C48.359 75.6225 46.286 75.3025 44.201 75.3045C33.016 75.3045 23.9505 84.366 23.9505 95.5445C23.9505 103.449 28.482 110.292 35.0905 113.625Z" fill="#FF004F"/>
<path d="M88.5415 46.7625C97.951 53.483 109.473 57.4375 121.919 57.4375V38.5945C114.972 37.1155 108.822 33.487 104.198 28.44C96.283 23.5035 90.5805 15.3595 88.9085 5.8275H71.4605V101.44C71.421 112.587 62.3705 121.613 51.2095 121.613C44.6325 121.613 38.7895 118.479 35.089 113.625C28.481 110.292 23.9495 103.448 23.9495 95.545C23.9495 84.3675 33.015 75.305 44.2 75.305C46.343 75.305 48.4085 75.6385 50.346 76.253V57.204C26.3265 57.7 7.009 77.316 7.009 101.441C7.009 113.484 11.8195 124.401 19.627 132.378C26.6705 137.105 35.1495 139.863 44.272 139.863C68.7215 139.863 88.542 120.052 88.542 95.6145V46.7625H88.5415Z" fill="black"/>
<path d="M121.919 38.5945V33.4995C115.654 33.509 109.513 31.7555 104.198 28.4395C108.903 33.588 115.098 37.138 121.919 38.5945ZM88.9085 5.8275C88.749 4.9165 88.6265 3.9995 88.5415 3.079V0H64.4505V95.614C64.412 106.759 55.362 115.785 44.2 115.785C40.923 115.785 37.829 115.007 35.089 113.626C38.7895 118.479 44.6325 121.612 51.2095 121.612C62.3695 121.612 71.4215 112.588 71.4605 101.441V5.8275H88.9085ZM50.347 57.204V51.78C48.334 51.505 46.3045 51.367 44.2725 51.368C19.821 51.3675 0 71.178 0 95.614C0 110.934 7.79 124.436 19.6275 132.378C11.82 124.401 7.0095 113.483 7.0095 101.44C7.0095 77.316 26.3265 57.7 50.347 57.204Z" fill="#00F2EA"/>
</svg>
