<svg width="206" height="146" viewBox="0 0 206 146" fill="none" xmlns="http://www.w3.org/2000/svg">
<g clip-path="url(#clip0_2_4)">
<path d="M81.7219 41.6014L81.7305 99.9241L137.385 70.8615L81.7219 41.6014Z" fill="white"/>
<path fill-rule="evenodd" clip-rule="evenodd" d="M81.7305 99.9241L81.7219 41.6014L137.385 70.8615L81.7305 99.9241ZM203.94 31.4931C203.94 31.4931 201.923 17.1936 195.751 10.8899C187.915 2.61941 179.138 2.58076 175.113 2.09982C146.286 0 103.047 0 103.047 0H102.953C102.953 0 59.7142 0 30.8871 2.10412C26.8572 2.58076 18.0851 2.61941 10.2442 10.8899C4.0685 17.1894 2.06 31.4931 2.06 31.4931C2.06 31.4931 0 48.2959 0 65.0902V80.8411C0 97.6396 2.06 114.434 2.06 114.434C2.06 114.434 4.0685 128.738 10.2442 135.037C18.0851 143.308 28.3765 143.05 32.96 143.913C49.44 145.506 103 146 103 146C103 146 146.286 145.936 175.113 143.831C179.138 143.346 187.915 143.308 195.751 135.037C201.927 128.738 203.94 114.434 203.94 114.434C203.94 114.434 206 97.6439 206 80.8411V65.0902C206 48.2959 203.94 31.4931 203.94 31.4931Z" fill="#CE1312"/>
</g>
<defs>
<clipPath id="clip0_2_4">
<rect width="206" height="146" fill="white"/>
</clipPath>
</defs>
</svg>
