<svg xmlns="http://www.w3.org/2000/svg" enable-background="new 0 0 100 100" viewBox="0 0 100 100" id="youtube-music"><path fill="red" d="M50.001,4.076c-25.329,0-45.863,20.588-45.863,45.984c2.416,60.997,89.319,60.98,91.726,0
				C95.863,24.664,75.33,4.076,50.001,4.076z"></path><path fill="red" d="M50.001,74.894c-13.713,0-24.829-11.117-24.829-24.83c1.308-32.936,48.356-32.926,49.659,0
				C74.83,63.777,63.714,74.894,50.001,74.894z"></path><path fill="#f1f1f1" d="M41.364,52.38c-0.001,2.486,0.001,7.596,0,10.099c0,0,21.051-12.955,21.051-12.955L41.364,37.649V52.38z"></path><path d="M41.616,55.438c-0.764,0-1.383,0.621-1.383,1.387v5.322c-0.032,1.049,1.232,1.763,2.109,1.181
				c0,0,20.438-12.61,20.438-12.61c0.884-0.51,0.861-1.914-0.045-2.389c0,0-20.438-11.559-20.438-11.559
				c-0.878-0.53-2.095,0.177-2.064,1.208v14.338c0.033,1.824,2.735,1.823,2.767,0c0,0,0-11.963,0-11.963l16.331,9.236L42.999,59.664
				v-2.839C42.999,56.059,42.38,55.438,41.616,55.438z"></path><path d="M50,2.5C23.808,2.5,2.5,23.863,2.5,50.123c2.609,63.179,92.401,63.16,95,0C97.5,23.863,76.192,2.5,50,2.5z M50,94.972
				c-24.666,0-44.733-20.119-44.733-44.849c2.457-59.498,87.018-59.481,89.466,0C94.733,74.853,74.666,94.972,50,94.972z"></path><path d="M50.001,25c-1.796,0.038-1.791,2.68,0,2.714c12.352,0,22.401,9.998,22.401,22.287c-1.229,29.561-43.573,29.56-44.801,0
				c0-10.296,7.009-19.197,17.046-21.646c1.733-0.453,1.1-3.033-0.65-2.636C15.419,33.297,20.434,74.378,50.001,75
				C83.339,73.626,83.327,26.368,50.001,25z"></path></svg>